<?xml version="1.0" standalone="no"?>
<!DOCTYPE svg PUBLIC "-//W3C//DTD SVG 20010904//EN"
 "http://www.w3.org/TR/2001/REC-SVG-20010904/DTD/svg10.dtd">
<svg version="1.0" xmlns="http://www.w3.org/2000/svg"
 width="4363.000000pt" height="4363.000000pt" viewBox="0 0 4363.000000 4363.000000"
 preserveAspectRatio="xMidYMid meet">
<metadata>
Created by potrace 1.11, written by Peter Selinger 2001-2013
</metadata>
<g transform="translate(0.000000,4363.000000) scale(0.100000,-0.100000)"
fill="#000000" stroke="none">
<path d="M21770 43562 c-338 -229 -486 -330 -960 -647 -294 -197 -555 -372
-580 -389 -25 -17 -53 -35 -62 -41 -9 -5 -185 -123 -390 -261 -205 -138 -593
-398 -863 -579 -269 -181 -699 -469 -955 -640 -256 -171 -706 -473 -1000 -670
-294 -197 -710 -476 -925 -620 -668 -449 -749 -501 -801 -528 -28 -14 -82 -51
-120 -81 -38 -31 -113 -84 -166 -118 l-98 -63 3 -2650 2 -2650 27 -80 c38
-111 91 -197 173 -281 219 -222 550 -275 830 -132 54 28 195 134 195 147 0 4
14 21 30 38 45 48 106 167 132 258 l23 80 0 1777 c0 978 3 1778 7 1778 4 0
456 -298 1005 -663 1743 -1159 3818 -2539 3823 -2544 7 -7 7 -4504 -1 -4508
-3 -2 -21 6 -40 19 -139 95 -402 266 -409 266 -4 0 -10 3 -12 8 -1 4 -70 52
-153 106 -82 55 -236 156 -341 225 -105 69 -198 131 -207 136 -9 6 -53 35 -99
66 -46 31 -290 194 -543 361 -775 513 -743 493 -843 523 -178 55 -382 35 -542
-52 -132 -71 -225 -164 -294 -296 -117 -219 -107 -481 25 -704 35 -58 150
-180 197 -210 15 -9 223 -146 462 -305 239 -158 568 -375 730 -482 162 -107
300 -199 305 -204 6 -5 15 -11 20 -13 6 -2 123 -79 260 -170 138 -91 459 -304
715 -474 256 -169 616 -408 801 -531 184 -123 364 -237 400 -253 99 -45 187
-61 314 -57 165 6 262 43 446 169 46 32 248 167 449 300 202 133 544 360 760
503 217 144 604 400 860 569 540 358 1113 737 1319 874 173 115 235 170 296
262 88 131 126 265 121 424 -10 292 -196 545 -473 642 -83 29 -130 37 -228 37
-112 1 -190 -15 -290 -57 -41 -17 -384 -235 -500 -317 -16 -12 -169 -114 -340
-226 -170 -113 -533 -353 -805 -533 -853 -565 -905 -599 -919 -603 -20 -5 -20
4501 0 4513 24 13 2403 1597 2414 1607 6 5 15 11 21 13 5 2 266 175 579 383
1155 769 1711 1139 1760 1170 l50 33 1 -1771 c0 -1653 1 -1776 18 -1846 56
-240 231 -431 468 -512 83 -28 105 -31 213 -32 143 0 213 16 335 76 67 33 103
60 170 128 113 112 178 236 206 390 6 37 9 5279 3 5284 -19 14 -235 161 -414
281 -121 82 -253 171 -293 199 -41 28 -85 58 -98 66 -13 8 -85 57 -160 108
-278 190 -407 278 -463 314 -31 20 -60 40 -66 45 -5 4 -80 55 -165 112 -85 58
-189 128 -230 156 -41 28 -181 123 -310 210 -129 88 -287 195 -350 238 -63 43
-205 139 -315 213 -110 75 -263 178 -340 231 -77 52 -228 154 -335 226 -107
73 -197 134 -200 137 -3 3 -61 43 -130 89 -161 108 -601 405 -755 511 -66 45
-172 116 -235 158 -63 42 -117 79 -120 82 -3 3 -75 52 -160 109 -85 58 -202
137 -260 176 -58 39 -181 123 -275 187 -300 203 -456 308 -655 443 -479 325
-418 283 -508 345 -40 28 -76 50 -80 50 -4 0 -45 -26 -92 -58z m128 -1677 c17
-14 33 -25 36 -25 3 0 28 -15 54 -33 59 -42 214 -148 457 -312 105 -71 224
-152 265 -180 123 -85 380 -259 405 -275 13 -8 81 -54 152 -102 304 -206 487
-330 618 -419 77 -53 219 -149 315 -214 96 -65 209 -142 250 -170 103 -71 377
-257 406 -275 13 -8 128 -86 256 -173 251 -171 330 -225 1008 -684 245 -166
450 -305 455 -310 6 -5 17 -12 25 -16 8 -4 56 -36 107 -71 84 -58 91 -65 75
-78 -19 -17 -4890 -3264 -4938 -3292 l-31 -19 -2481 1654 c-1365 910 -2482
1656 -2482 1659 1 3 191 132 423 287 232 156 611 409 842 564 1348 903 1828
1224 2060 1381 143 96 505 338 805 539 300 200 550 367 555 372 24 20 321 216
327 217 3 0 20 -11 36 -25z"/>
<path d="M18604 33738 c-74 -25 -114 -51 -394 -259 -129 -96 -245 -181 -257
-189 -20 -14 -525 -387 -994 -735 -119 -88 -296 -218 -393 -290 -98 -71 -187
-138 -199 -147 -44 -33 -303 -224 -324 -238 -12 -8 -139 -103 -283 -210 -144
-107 -275 -204 -290 -215 -16 -11 -83 -60 -150 -110 -67 -49 -143 -106 -170
-125 -109 -79 -403 -296 -414 -305 -6 -6 -94 -71 -194 -145 -101 -74 -234
-172 -295 -218 -62 -46 -123 -91 -137 -100 -14 -9 -77 -56 -140 -103 -153
-114 -374 -278 -655 -484 -126 -93 -234 -173 -240 -178 -5 -4 -50 -37 -100
-73 -107 -78 -306 -225 -320 -237 -5 -4 -59 -44 -120 -88 -236 -174 -513 -378
-550 -407 -5 -4 -85 -63 -177 -130 -174 -128 -217 -169 -261 -250 -60 -111
-72 -281 -28 -391 20 -49 80 -150 106 -177 5 -6 23 -27 40 -48 115 -145 363
-200 542 -120 58 25 69 32 308 209 83 61 211 156 285 211 74 55 193 142 263
194 106 78 308 227 552 408 22 16 121 89 220 162 99 73 208 153 241 179 34 25
71 53 83 61 12 8 89 65 171 125 82 61 179 132 217 160 37 27 75 55 83 62 26
21 394 293 420 311 30 20 494 363 555 409 6 5 44 33 85 63 41 30 82 60 90 67
8 6 155 114 325 239 171 126 312 231 315 234 3 4 28 21 55 40 28 19 52 36 55
40 3 3 77 58 165 122 88 64 177 129 197 145 20 15 68 50 105 78 37 27 509 375
1048 773 539 398 991 731 1004 740 150 104 230 249 229 417 0 125 -29 201
-126 330 -79 105 -145 154 -257 192 -87 30 -205 30 -291 1z"/>
<path d="M24869 33740 c-85 -26 -134 -56 -197 -118 -74 -74 -145 -181 -172
-262 -55 -163 -10 -355 112 -480 18 -19 159 -127 312 -240 153 -113 362 -267
465 -342 102 -76 197 -146 210 -155 13 -10 105 -78 205 -152 100 -73 209 -154
243 -180 34 -25 84 -62 110 -81 26 -19 50 -37 53 -40 3 -3 46 -34 95 -69 50
-36 104 -75 120 -88 17 -13 35 -27 40 -31 6 -4 35 -25 65 -48 112 -83 376
-278 775 -572 663 -488 1519 -1120 1530 -1129 6 -5 123 -91 260 -192 265 -195
324 -238 367 -272 15 -11 65 -48 112 -82 129 -94 530 -390 541 -399 11 -9 163
-122 404 -298 79 -58 149 -110 155 -115 6 -6 74 -56 151 -113 131 -95 203
-148 526 -387 69 -51 148 -104 175 -118 181 -91 409 -52 553 94 41 42 112 141
139 194 61 120 64 268 9 400 -35 84 -101 161 -197 228 -24 17 -51 37 -60 44
-8 6 -125 93 -260 192 -207 153 -557 411 -1128 833 -62 45 -215 158 -340 251
-125 92 -238 175 -251 185 -13 9 -116 86 -230 170 -113 84 -249 184 -301 222
-75 55 -396 291 -539 397 -91 68 -291 216 -366 271 -49 36 -160 118 -245 181
-241 178 -324 240 -476 352 -231 170 -543 400 -616 454 -37 28 -89 66 -115 85
-25 19 -92 69 -149 110 -102 74 -1120 826 -1284 948 -47 35 -94 70 -105 78
-11 8 -81 60 -155 115 -145 108 -216 149 -294 168 -65 16 -181 12 -247 -9z"/>
<path d="M7110 29852 c-63 -43 -207 -141 -320 -217 -113 -77 -279 -190 -370
-252 -91 -61 -248 -168 -350 -237 -180 -121 -337 -227 -685 -464 -93 -64 -233
-158 -310 -210 -77 -53 -207 -141 -290 -197 -82 -56 -226 -154 -320 -217 -357
-243 -416 -283 -625 -424 -118 -80 -289 -196 -380 -258 -91 -61 -250 -170
-355 -241 -104 -71 -307 -208 -450 -305 -143 -97 -339 -230 -435 -295 -96 -65
-229 -155 -295 -200 -232 -158 -501 -341 -626 -425 -69 -47 -181 -123 -250
-169 -68 -47 -212 -144 -319 -216 -107 -73 -244 -166 -305 -207 l-110 -75 0
-3488 0 -3488 715 -476 c393 -262 717 -478 720 -481 21 -21 5521 -3680 5532
-3680 7 0 59 31 115 69 56 38 105 70 110 72 4 2 188 124 408 270 220 146 614
408 875 581 261 173 556 368 655 434 99 65 187 124 196 129 9 6 34 22 55 36
37 25 1020 677 1424 945 176 116 265 192 317 269 100 147 144 336 120 513 -25
185 -139 366 -304 480 -36 25 -147 82 -171 87 -166 38 -269 43 -380 18 -138
-31 -80 5 -1537 -962 -170 -113 -314 -208 -320 -211 -5 -3 -198 -130 -428
-283 -229 -152 -420 -277 -422 -277 -3 0 -5 1016 -4 2258 l0 2257 537 356
c295 196 847 563 1227 815 379 253 694 461 700 463 5 2 14 8 20 13 5 5 199
135 430 288 231 154 427 284 435 290 146 99 1486 987 1487 985 2 -1 3 -798 4
-1771 1 -1693 2 -1772 19 -1844 34 -134 97 -246 192 -341 249 -249 666 -272
938 -50 97 78 153 150 205 264 67 144 62 -51 61 2831 l-1 2619 -120 82 c-111
75 -938 630 -1539 1032 -143 95 -263 173 -267 173 -4 0 -9 3 -11 8 -2 4 -118
84 -258 178 -685 458 -1595 1069 -2378 1595 -233 156 -434 291 -448 299 -23
15 -928 621 -1636 1097 -191 128 -351 233 -356 233 -4 0 -59 -35 -122 -78z
m488 -1870 c667 -446 877 -587 887 -594 6 -5 46 -32 90 -61 44 -29 271 -182
505 -338 234 -157 646 -433 915 -614 591 -396 1169 -784 1798 -1205 257 -172
464 -316 459 -319 -30 -21 -1201 -800 -2102 -1399 -591 -393 -1322 -880 -1625
-1081 -302 -201 -557 -370 -566 -376 -18 -11 -7 -4 -387 -257 -157 -104 -290
-187 -297 -184 -9 3 -4945 3291 -4974 3313 -7 5 -41 -19 564 391 187 127 271
184 570 387 66 45 197 133 290 197 308 208 601 407 878 595 75 51 201 136 280
190 78 53 203 138 277 188 74 50 214 145 310 210 96 65 216 146 265 180 50 34
167 113 260 177 170 114 452 305 575 389 36 24 67 47 68 52 2 4 7 7 12 7 7 0
268 176 495 333 44 30 84 56 88 56 5 1 169 -106 365 -237z m-5778 -4498 c8 -7
65 -45 125 -84 179 -118 249 -165 260 -173 5 -4 219 -147 475 -317 256 -171
472 -314 480 -320 8 -6 46 -31 83 -55 38 -25 94 -62 125 -83 31 -22 104 -70
162 -108 57 -38 109 -73 115 -77 5 -4 105 -71 220 -147 116 -76 230 -153 255
-170 25 -17 68 -46 95 -64 28 -17 234 -155 460 -306 225 -151 414 -277 419
-279 6 -2 19 -12 30 -23 11 -10 25 -18 32 -18 7 0 14 -3 16 -8 3 -7 504 -344
523 -351 5 -2 12 -7 15 -10 6 -7 779 -523 796 -531 6 -3 23 -15 38 -27 l28
-22 -1 -2243 c0 -1234 0 -2249 -1 -2255 0 -7 -1088 713 -2418 1600 l-2419
1612 0 2258 -1 2257 37 -22 c20 -12 43 -27 51 -34z"/>
<path d="M35980 29657 c-223 -150 -686 -461 -1030 -692 -344 -230 -780 -523
-970 -650 -190 -127 -579 -388 -865 -580 -647 -433 -1345 -901 -1835 -1230
-206 -138 -663 -445 -1015 -680 -352 -236 -694 -466 -760 -510 l-120 -80 0
-2635 c0 -2483 1 -2639 18 -2700 75 -276 285 -472 566 -526 304 -59 622 104
762 390 78 160 73 18 73 1994 1 1180 4 1761 11 1758 6 -2 503 -331 1105 -731
602 -401 1520 -1011 2040 -1356 520 -345 953 -634 962 -641 10 -7 175 -116
367 -243 l350 -230 1 -2258 c0 -1242 -3 -2257 -7 -2255 -8 3 -550 362 -981
650 -106 70 -196 128 -201 128 -5 0 -11 4 -13 8 -1 4 -57 44 -123 87 -66 43
-354 234 -640 423 -286 190 -542 357 -570 373 -99 55 -186 74 -335 73 -120 0
-144 -3 -214 -28 -193 -66 -337 -194 -422 -372 -127 -268 -73 -585 136 -800
36 -37 156 -124 345 -249 1033 -684 1316 -872 1615 -1070 419 -277 989 -655
1628 -1078 l493 -327 3484 2322 3484 2323 0 3490 0 3490 -32 21 c-31 19 -231
155 -462 312 -60 42 -204 139 -320 218 -115 78 -273 185 -350 237 -77 53 -230
156 -340 231 -110 74 -254 172 -320 217 -66 45 -230 156 -365 247 -135 92
-326 221 -425 288 -99 68 -250 170 -335 228 -187 126 -647 438 -960 651 -58
39 -217 147 -355 240 -137 93 -268 182 -290 198 -22 15 -218 149 -435 295
-460 312 -600 407 -1357 920 -310 210 -568 382 -575 381 -7 0 -195 -123 -418
-272z m523 -1508 c56 -39 255 -174 442 -301 589 -399 900 -609 1083 -733 97
-67 276 -188 397 -269 121 -82 270 -183 330 -224 61 -42 157 -108 215 -147 58
-40 209 -142 335 -227 127 -86 293 -199 370 -251 77 -53 223 -152 325 -221
102 -68 280 -189 395 -267 116 -79 303 -206 417 -284 114 -77 277 -187 362
-245 118 -80 152 -108 143 -116 -31 -30 -4954 -3308 -4967 -3308 -8 0 -347
222 -754 492 -406 271 -740 492 -742 492 -2 0 -25 16 -51 36 -26 20 -56 40
-68 45 -11 5 -96 61 -190 124 -93 63 -177 120 -185 125 -34 23 -2332 1551
-2642 1757 -186 123 -338 227 -337 231 0 4 141 100 312 214 172 114 508 338
747 499 239 160 741 496 1115 747 374 250 802 537 950 637 149 100 583 391
965 647 382 256 745 499 805 541 61 41 113 76 118 76 4 1 53 -31 110 -70z
m5385 -9125 c-7 -6 -1096 -734 -2421 -1617 l-2407 -1606 2 2257 3 2257 2415
1611 2415 1611 3 -2251 c2 -1792 -1 -2253 -10 -2262z"/>
<path d="M16493 23370 c-122 -25 -220 -75 -298 -154 -70 -70 -115 -153 -146
-271 -21 -78 -22 -97 -23 -870 -2 -869 0 -900 48 -1029 64 -170 193 -283 376
-332 92 -24 301 -24 395 0 237 61 381 232 421 496 10 71 5 1604 -6 1673 -39
246 -178 410 -400 473 -63 18 -301 27 -367 14z m259 -386 c36 -18 65 -51 86
-94 16 -32 17 -106 17 -845 0 -445 -3 -820 -7 -832 -28 -91 -98 -145 -189
-145 -114 1 -177 45 -206 142 -14 49 -16 144 -16 830 0 807 0 810 42 883 42
74 185 106 273 61z"/>
<path d="M23780 23370 c-162 -28 -297 -112 -375 -235 -49 -76 -75 -152 -95
-275 -5 -30 -8 -419 -6 -865 l2 -810 23 -75 c88 -289 293 -426 626 -415 114 4
136 8 224 37 156 51 275 173 330 340 39 120 41 170 41 978 -1 734 -2 790 -20
870 -39 175 -110 286 -236 366 -66 42 -115 61 -212 80 -78 15 -227 17 -302 4z
m237 -381 c40 -13 86 -65 104 -116 19 -54 20 -1606 1 -1670 -7 -23 -27 -58
-45 -77 -76 -81 -250 -74 -314 11 -47 65 -47 59 -48 893 -1 877 -3 852 67 922
53 53 144 67 235 37z"/>
<path d="M25232 23364 c-97 -20 -200 -75 -262 -138 -88 -91 -132 -182 -161
-338 -16 -88 -17 -1592 0 -1697 25 -158 84 -278 179 -361 117 -103 229 -136
442 -134 291 4 477 142 553 409 17 59 21 110 24 335 l5 265 -196 0 -196 0 -1
-220 c-1 -246 -2 -261 -30 -319 -24 -51 -73 -85 -136 -95 -97 -14 -175 21
-215 99 l-23 45 -1 804 c-1 494 2 817 8 840 25 94 96 146 197 145 109 -1 175
-60 195 -174 3 -14 5 -103 5 -197 l1 -173 196 0 196 0 -5 223 c-5 240 -13 287
-67 401 -40 83 -93 146 -165 194 -72 49 -119 69 -204 87 -82 17 -257 17 -339
-1z"/>
<path d="M17534 23335 c-2 -5 -2 -489 -1 -1075 3 -1044 4 -1066 24 -1140 63
-225 183 -349 394 -406 66 -18 265 -24 343 -11 188 31 335 146 406 315 59 139
59 138 57 1282 l-2 1045 -195 0 -195 0 -1 -1040 c-1 -1090 -1 -1090 -45 -1162
-24 -38 -90 -72 -145 -74 -134 -5 -209 58 -222 189 -4 37 -7 520 -7 1075 0
554 -2 1008 -5 1008 -3 1 -94 2 -204 3 -125 1 -200 -3 -202 -9z"/>
<path d="M19050 22038 l0 -1308 205 0 205 0 1 23 c0 12 1 263 2 557 l2 535
105 1 c122 1 175 -13 219 -58 60 -62 64 -86 67 -483 3 -372 7 -457 25 -531
l11 -44 215 0 c203 0 213 1 204 18 -31 57 -37 144 -38 480 -1 188 -4 376 -8
418 -17 202 -90 333 -219 396 l-45 22 47 27 c117 68 177 164 206 331 14 82 16
433 2 488 -3 14 -8 37 -11 51 -24 133 -116 254 -240 315 -122 60 -175 66 -587
68 l-368 2 0 -1308z m695 911 c85 -39 108 -107 109 -324 0 -88 -3 -181 -6
-207 -14 -98 -74 -166 -163 -186 -22 -4 -80 -8 -130 -7 l-90 0 -1 372 0 371
125 -2 c81 -2 137 -8 156 -17z"/>
<path d="M20551 22037 l0 -1309 402 5 c221 2 413 7 426 10 191 51 293 121 366
251 60 108 77 202 79 435 3 244 -7 334 -44 435 -41 108 -108 183 -212 236
l-46 24 46 27 c101 58 174 165 197 288 21 114 24 371 6 466 -7 33 -14 71 -17
85 -3 14 -19 54 -36 90 -60 124 -180 211 -339 246 -60 13 -146 16 -451 18
l-377 2 0 -1309z m716 910 c77 -41 103 -118 103 -311 0 -159 -11 -221 -50
-274 -46 -64 -85 -77 -230 -77 l-125 0 0 335 c-1 184 0 338 2 341 1 4 63 6
135 5 103 -1 140 -6 165 -19z m-25 -1050 c34 -7 67 -24 96 -51 58 -52 74 -127
73 -353 0 -235 -10 -291 -64 -341 -39 -37 -99 -48 -242 -46 -71 1 -132 2 -135
3 -8 2 -6 786 2 792 10 6 232 3 270 -4z"/>
<path d="M22063 22038 l0 -1308 543 0 544 0 0 188 0 187 -327 -1 c-181 0 -333
1 -338 3 -7 2 -10 382 -10 1118 0 738 -3 1115 -10 1116 -5 1 -98 2 -206 3
l-196 1 0 -1307z"/>
<path d="M26262 23340 c-4 -3 -8 -591 -7 -1307 l0 -1303 206 0 207 0 0 418 1
417 75 151 c42 84 76 158 76 165 1 11 3 11 9 -1 8 -13 133 -429 300 -992 l46
-158 217 0 c170 0 216 3 213 13 -3 6 -41 134 -85 282 -44 149 -84 284 -90 300
-5 17 -72 239 -149 495 -77 256 -146 487 -155 513 l-15 49 108 211 c60 117
170 332 245 479 74 147 132 269 128 271 -11 5 -400 2 -405 -3 -5 -5 -35 -67
-132 -275 -63 -135 -191 -404 -294 -618 -39 -82 -71 -152 -71 -156 0 -5 -6
-13 -12 -19 -10 -8 -13 98 -11 529 1 296 -1 540 -5 540 -24 4 -395 3 -400 -1z"/>
<path d="M10393 20248 c-110 -17 -227 -81 -295 -163 -62 -75 -134 -192 -143
-234 -2 -9 -8 -29 -13 -46 -14 -48 -7 -175 13 -240 18 -59 62 -135 107 -187
21 -24 115 -95 484 -368 71 -52 206 -151 299 -220 171 -127 303 -224 573 -423
81 -59 158 -117 172 -127 52 -40 1019 -754 1110 -820 52 -38 170 -124 262
-192 207 -153 638 -472 863 -638 94 -69 186 -137 205 -150 19 -13 37 -27 40
-30 3 -4 30 -24 60 -46 151 -110 346 -254 730 -539 124 -91 234 -173 245 -181
71 -51 243 -177 255 -187 8 -7 92 -68 185 -137 94 -68 171 -128 173 -132 2 -4
10 -8 17 -8 7 0 15 -3 17 -8 2 -4 73 -59 158 -121 85 -63 196 -144 245 -181
50 -37 171 -127 270 -200 189 -139 234 -172 406 -300 168 -124 236 -151 372
-146 101 4 126 9 202 46 112 54 241 203 288 330 48 133 40 268 -25 391 -53
101 -61 108 -672 557 -65 48 -131 96 -146 107 -16 11 -110 81 -210 155 -99 74
-191 142 -203 150 -12 8 -67 48 -122 89 -91 68 -156 116 -420 311 -49 37 -164
122 -255 189 -91 67 -174 129 -185 137 -127 93 -392 288 -518 382 -87 64 -198
146 -247 182 -372 274 -456 335 -465 342 -15 13 -80 61 -107 80 -12 9 -107 79
-210 155 -102 76 -284 210 -403 298 -310 228 -657 485 -750 554 -240 177 -453
334 -474 349 -13 9 -35 26 -50 38 -14 11 -233 173 -486 359 -509 375 -659 486
-878 648 -81 60 -170 120 -197 133 -84 40 -187 56 -277 42z"/>
<path d="M33202 20249 c-85 -11 -161 -45 -258 -117 -51 -37 -154 -113 -230
-169 -77 -57 -206 -153 -289 -213 -82 -61 -161 -119 -175 -130 -36 -27 -479
-354 -585 -432 -49 -37 -148 -110 -220 -162 -71 -53 -199 -147 -283 -209 -83
-61 -228 -168 -321 -237 -93 -69 -258 -191 -367 -272 -110 -80 -352 -259 -539
-397 -187 -138 -479 -354 -648 -479 -170 -125 -366 -270 -437 -322 -233 -172
-979 -723 -1090 -805 -60 -44 -252 -185 -427 -314 -175 -129 -330 -244 -344
-255 -15 -12 -37 -29 -50 -38 -13 -9 -60 -43 -104 -76 -44 -33 -213 -157 -375
-276 -162 -120 -308 -232 -324 -249 -90 -100 -128 -201 -128 -337 0 -117 33
-200 131 -329 85 -112 142 -153 259 -190 115 -35 258 -22 361 35 25 14 87 55
136 92 50 37 165 122 255 189 91 66 213 156 271 200 58 43 117 86 130 95 13
10 71 53 129 96 58 42 157 115 220 162 63 46 120 88 125 93 6 4 127 94 271
200 144 106 272 200 285 210 13 9 38 27 55 40 18 12 47 34 65 48 19 15 205
152 414 306 341 251 467 344 545 403 14 10 64 47 111 82 48 35 160 117 249
183 175 129 402 297 631 466 79 58 329 242 554 409 226 166 457 337 514 379
57 42 156 115 220 162 64 47 208 154 321 237 113 83 218 160 233 172 15 12 83
63 150 112 67 49 133 98 147 108 26 20 181 134 522 385 369 272 380 282 434
387 55 107 64 263 23 372 -41 111 -168 270 -254 321 -92 54 -207 78 -313 64z"/>
<path d="M21704 16270 c-33 -22 -66 -44 -74 -50 -8 -6 -80 -54 -160 -108 -80
-54 -230 -156 -335 -227 -264 -180 -417 -283 -596 -404 -85 -57 -188 -128
-229 -156 -41 -28 -151 -103 -245 -167 -230 -155 -470 -318 -710 -481 -110
-75 -283 -192 -385 -261 -240 -161 -390 -264 -415 -281 -11 -8 -36 -25 -55
-38 -49 -33 -368 -248 -475 -322 -49 -34 -189 -128 -310 -210 -121 -82 -260
-176 -310 -210 -49 -34 -162 -110 -250 -170 -88 -59 -214 -145 -280 -190 -66
-45 -199 -135 -295 -200 -265 -179 -414 -281 -530 -360 -97 -66 -221 -150
-785 -532 -115 -78 -256 -173 -312 -210 l-102 -68 0 -3490 -1 -3490 1115 -745
c614 -410 1123 -750 1133 -755 77 -46 635 -425 666 -452 34 -31 506 -347 1446
-968 151 -100 505 -334 785 -520 281 -186 643 -426 805 -533 162 -107 456
-303 653 -434 196 -131 359 -238 362 -238 3 0 288 188 633 417 954 633 1832
1216 2182 1448 877 581 1198 795 1229 821 18 16 684 463 1480 994 l1446 965 1
3475 c0 1911 -2 3483 -5 3492 -4 10 -29 33 -56 51 -67 44 -689 466 -790 535
-44 31 -177 121 -295 200 -118 80 -262 177 -320 217 -58 40 -168 115 -245 167
-77 52 -232 157 -345 234 -113 76 -292 197 -397 269 -106 71 -201 136 -210
142 -10 7 -76 53 -148 101 -121 82 -536 363 -1010 685 -110 74 -330 224 -490
332 -159 108 -418 283 -575 390 -157 107 -368 250 -470 319 -102 68 -308 208
-459 311 -151 102 -365 248 -475 322 -111 75 -241 164 -291 198 -348 237 -334
230 -365 212 -24 -14 -29 -15 -46 -2 -26 20 -24 20 -90 -25z m479 -1943 c314
-211 859 -577 1372 -921 83 -56 158 -105 167 -111 9 -5 166 -111 350 -234 701
-471 2370 -1591 2585 -1734 68 -45 123 -84 123 -87 0 -3 -62 -46 -138 -95 -75
-50 -1191 -794 -2480 -1653 -2072 -1382 -2345 -1561 -2363 -1551 -18 9 -3147
2093 -3204 2133 -84 59 -338 226 -345 226 -5 0 -10 3 -12 8 -3 7 -684 464
-702 471 -6 2 -13 7 -16 10 -7 8 -451 305 -464 310 -5 2 -15 8 -21 13 -5 5
-49 35 -98 67 -65 44 -84 61 -75 69 7 6 139 94 293 197 154 104 456 306 670
450 215 144 638 427 940 630 303 203 732 491 955 640 223 149 680 455 1015
680 336 225 716 480 845 567 129 87 236 158 237 158 2 0 166 -109 366 -243z
m-5211 -4889 c381 -254 979 -651 1328 -883 1348 -895 2795 -1858 2799 -1861
10 -9 6 -4512 -4 -4506 -22 12 -4811 3205 -4819 3212 -4 5 -8 217 -8 472 0
254 1 1265 1 2246 1 980 3 1782 5 1782 3 0 317 -208 698 -462z m10390 -1787
c1 -1319 -3 -2245 -8 -2250 -5 -5 -934 -625 -2064 -1378 -1130 -754 -2211
-1474 -2402 -1602 -190 -127 -349 -231 -352 -231 -3 0 -6 1012 -6 2250 l0
2249 143 96 c196 132 2253 1501 3582 2384 604 401 1101 729 1102 727 2 -2 4
-1012 5 -2245z"/>
</g>
</svg>
